<?xml version="1.0" encoding="UTF-8" standalone="no"?>
<svg
   xmlns:dc="http://purl.org/dc/elements/1.1/"
   xmlns:cc="http://creativecommons.org/ns#"
   xmlns:rdf="http://www.w3.org/1999/02/22-rdf-syntax-ns#"
   xmlns:svg="http://www.w3.org/2000/svg"
   xmlns="http://www.w3.org/2000/svg"
   xmlns:xlink="http://www.w3.org/1999/xlink"
   xmlns:sodipodi="http://sodipodi.sourceforge.net/DTD/sodipodi-0.dtd"
   xmlns:inkscape="http://www.inkscape.org/namespaces/inkscape"
   width="99.999992mm"
   height="20.456472mm"
   viewBox="0 0 99.999992 20.456472"
   version="1.1"
   id="svg909"
   inkscape:version="1.0.1 (3bc2e813f5, 2020-09-07)"
   sodipodi:docname="kada-clean.svg">
  <defs
     id="defs903">
    <linearGradient
       inkscape:collect="always"
       id="linearGradient1095">
      <stop
         style="stop-color:#0d3068;stop-opacity:1"
         offset="0"
         id="stop1091" />
      <stop
         style="stop-color:#298fe1;stop-opacity:1"
         offset="1"
         id="stop1093" />
    </linearGradient>
    <linearGradient
       inkscape:collect="always"
       xlink:href="#linearGradient1095"
       id="linearGradient1116"
       gradientUnits="userSpaceOnUse"
       x1="385.83594"
       y1="539.22064"
       x2="385.83594"
       y2="512.74628"
       gradientTransform="matrix(0.78797115,0,0,0.78797115,-263.88107,-404.24767)" />
  </defs>
  <sodipodi:namedview
     id="base"
     pagecolor="#ffffff"
     bordercolor="#666666"
     borderopacity="1.0"
     inkscape:pageopacity="0.0"
     inkscape:pageshadow="2"
     inkscape:zoom="1.979899"
     inkscape:cx="271.98527"
     inkscape:cy="96.417496"
     inkscape:document-units="mm"
     inkscape:current-layer="layer1"
     inkscape:document-rotation="0"
     showgrid="false"
     showborder="false"
     inkscape:window-width="1920"
     inkscape:window-height="1017"
     inkscape:window-x="-8"
     inkscape:window-y="-8"
     inkscape:window-maximized="1" />
  <metadata
     id="metadata906">
    <rdf:RDF>
      <cc:Work
         rdf:about="">
        <dc:format>image/svg+xml</dc:format>
        <dc:type
           rdf:resource="http://purl.org/dc/dcmitype/StillImage" />
        <dc:title />
      </cc:Work>
    </rdf:RDF>
  </metadata>
  <g
     inkscape:label="Layer 1"
     inkscape:groupmode="layer"
     id="layer1">
    <path
       id="path1025-3"
       style="font-variant:normal;font-weight:900;font-size:8.35849px;font-family:Arial;-inkscape-font-specification:Arial-Black;writing-mode:lr-tb;fill:url(#linearGradient1116);fill-opacity:1;fill-rule:nonzero;stroke:none;stroke-width:0.236213"
       d="m 81.730466,0 c -1.21161,0 -2.18691,0.975319 -2.18694,2.186927 v 16.08261 c 0,1.211576 0.97533,2.186927 2.18694,2.186935 h 16.08261 c 1.21161,0 2.18689,-0.975359 2.18692,-2.186935 V 2.186927 C 100.00004,0.975319 99.024686,0 97.813076,0 Z m 3.07493,2.922569 h 0.002 l 1.2112,0.495563 c 0,0 0.70164,1.151439 1.5344,2.370068 0.83272,1.218636 1.79746,2.503447 2.32543,2.771751 0.53842,0.273694 3.03259,0.620118 5.13874,0.883387 0.20163,0.0238 -0.15962,-1.456541 0.037,-1.429734 0.19864,0.02679 1.09476,1.546094 1.28507,1.572861 0.75543,0.106321 1.34267,0.193195 1.74061,0.290872 0.39791,0.09768 0.60788,0.205471 0.60791,0.350899 -6e-5,0.148903 -0.18941,0.262985 -0.57559,0.363199 -0.38644,0.100364 -0.97037,0.18604 -1.76062,0.281645 -0.18614,0.0238 -1.11115,1.510462 -1.30354,1.531304 -0.19001,0.02088 0.15694,-1.424416 -0.037,-1.403566 -2.1133,0.227527 -4.68575,0.493278 -5.16029,0.764884 -0.46927,0.268327 -1.39714,1.575382 -2.20847,2.816382 -0.81131,1.241023 -1.50669,2.416235 -1.50669,2.416235 l -1.36818,0.535576 c 0,0 0.11672,-3.343433 -0.15698,-4.623177 -0.13699,-0.639793 -0.32233,-1.052603 -0.53249,-1.331238 -0.21026,-0.278752 -0.44411,-0.423148 -0.67871,-0.526341 -0.46915,-0.206385 -2.54243,-0.824903 -2.54243,-0.824903 0,0 2.15077,-0.454005 2.58091,-0.701791 0.21502,-0.123893 0.45013,-0.289185 0.66023,-0.598669 0.21027,-0.309609 0.39498,-0.763449 0.51096,-1.465138 0.23468,-1.403487 0.19699,-4.540069 0.19699,-4.540069 z M 5.925173,1.320466 3.208823,9.489513 16.199576,9.487913 15.796355,8.041253 24.520986,1.320411 h -7.31644 l -8.013603,6.73315 2.239256,-6.73315 z M 16.60895,10.960797 2.716341,10.969997 0,19.139044 h 5.505026 l 1.448205,-4.350767 3.833661,-2.97798 1.318929,7.328747 h 6.782395 z m 8.099796,-0.0063 -5.79744,8.184436 h 5.62815 l 1.84064,-2.941039 h 6.27299 l -0.10311,2.941039 h 5.7605 l -0.35551,-8.193671 -5.14028,0.0032 -0.0354,1.395875 h -3.926 l 0.88954,-1.392794 z m 8.14134,-1.468211 h 5.04178 l -0.35397,-8.165965 h -6.00366 l -5.78513,8.167502 4.92637,-0.0016 2.26387,-3.547407 z m 10.5068,0 5.50502,-0.0016 1.37279,-4.129158 h 1.37433 c 1.42617,0 2.33067,0.348118 2.71481,1.044984 0.32018,0.580916 0.20441,1.675573 -0.17852,3.084174 h 5.52041 c 0.27077,-0.953776 0.51388,-1.896694 0.56944,-2.767134 0.0693,-1.085816 -0.0841,-2.037961 -0.46017,-2.856395 -0.37614,-0.818419 -0.98945,-1.447716 -1.84065,-1.885284 -0.84308,-0.437568 -2.0703,-0.655616 -3.68284,-0.655616 h -8.17982 z m 20.04863,-0.0016 4.92789,-0.0016 2.2608,-3.544325 -0.0893,3.544325 h 5.04179 l -0.35397,-8.162884 h -6.00367 z m 12.20277,1.434352 -5.13873,0.0032 -0.0354,1.422036 h -3.92601 l 0.90648,-1.4205 -5.03102,0.0047 -5.81744,8.210597 h 5.62815 l 1.84064,-2.94104 h 6.27146 l -0.10312,2.94104 h 5.76204 z m -16.44735,0.0108 -5.50656,0.0047 c -0.3763,0.993553 -0.75378,1.93915 -1.13887,2.44394 -0.48566,0.632047 -1.01586,1.076558 -1.58825,1.335863 -0.56973,0.251197 -1.42874,0.377052 -2.57938,0.377052 h -1.34971 l 1.38049,-4.153774 -5.50656,0.0047 -2.72558,8.196744 h 8.17982 c 0.98046,0 2.1276,-0.162204 3.44275,-0.486328 0.96137,-0.234997 1.94454,-0.704762 2.94873,-1.409728 1.0069,-0.713066 1.8993,-1.592545 2.67634,-2.637859 0.65283,-0.872907 1.22016,-2.218021 1.76678,-3.675145 z" />
  </g>
</svg>
